<?xml version="1.0" encoding="UTF-8" standalone="no"?>
<svg
   width="64"
   height="64"
   viewBox="0 0 48 60"
   version="1.1"
   id="svg43"
   sodipodi:docname="Prayer-rug.svg"
   inkscape:version="1.4.2 (ebf0e940d0, 2025-05-08)"
   xmlns:inkscape="http://www.inkscape.org/namespaces/inkscape"
   xmlns:sodipodi="http://sodipodi.sourceforge.net/DTD/sodipodi-0.dtd"
   xmlns="http://www.w3.org/2000/svg"
   xmlns:svg="http://www.w3.org/2000/svg">
  <defs
     id="defs43" />
  <sodipodi:namedview
     id="namedview43"
     pagecolor="#ffffff"
     bordercolor="#000000"
     borderopacity="0.25"
     inkscape:showpageshadow="2"
     inkscape:pageopacity="0.0"
     inkscape:pagecheckerboard="0"
     inkscape:deskcolor="#d1d1d1"
     inkscape:zoom="12.09375"
     inkscape:cx="32"
     inkscape:cy="32"
     inkscape:window-width="1920"
     inkscape:window-height="990"
     inkscape:window-x="0"
     inkscape:window-y="0"
     inkscape:window-maximized="1"
     inkscape:current-layer="svg43" />
  <rect
     x="6"
     y="8"
     width="36"
     height="44"
     rx="3"
     ry="3"
     fill="#4A90E2"
     id="rect1" />
  <rect
     x="9"
     y="11"
     width="30"
     height="38"
     rx="1.5"
     ry="1.5"
     fill="none"
     stroke="#F5A623"
     stroke-width="1.5"
     id="rect2" />
  <path
     d="m 15.767442,30.72093 v -13 q 8,-7 16,0 v 13 a 8,8 0 0 0 -8,6 8,8 0 0 0 -8,-6 z"
     fill="#2f5a8f"
     id="path2" />
  <path
     d="m 17.844961,29.488372 v -10.5 q 6,-6 12,0 v 10.5 a 6,6 0 0 0 -6,5 6,6 0 0 0 -6,-5 z"
     fill="#f5a623"
     opacity="0.7"
     id="path3" />
  <circle
     cx="12.5"
     cy="15"
     r="1"
     fill="#F5A623"
     id="circle3" />
  <circle
     cx="12.5"
     cy="20"
     r="1"
     fill="#F5A623"
     id="circle4" />
  <circle
     cx="12.5"
     cy="25"
     r="1"
     fill="#F5A623"
     id="circle5" />
  <circle
     cx="12.5"
     cy="30"
     r="1"
     fill="#F5A623"
     id="circle6" />
  <circle
     cx="12.5"
     cy="35"
     r="1"
     fill="#F5A623"
     id="circle7" />
  <circle
     cx="12.5"
     cy="40"
     r="1"
     fill="#F5A623"
     id="circle8" />
  <circle
     cx="12.5"
     cy="45"
     r="1"
     fill="#F5A623"
     id="circle9" />
  <circle
     cx="35.5"
     cy="15"
     r="1"
     fill="#F5A623"
     id="circle10" />
  <circle
     cx="35.5"
     cy="20"
     r="1"
     fill="#F5A623"
     id="circle11" />
  <circle
     cx="35.5"
     cy="25"
     r="1"
     fill="#F5A623"
     id="circle12" />
  <circle
     cx="35.5"
     cy="30"
     r="1"
     fill="#F5A623"
     id="circle13" />
  <circle
     cx="35.5"
     cy="35"
     r="1"
     fill="#F5A623"
     id="circle14" />
  <circle
     cx="35.5"
     cy="40"
     r="1"
     fill="#F5A623"
     id="circle15" />
  <circle
     cx="35.5"
     cy="45"
     r="1"
     fill="#F5A623"
     id="circle16" />
  <circle
     cx="17"
     cy="46.5"
     r="1"
     fill="#F5A623"
     id="circle17" />
  <circle
     cx="21"
     cy="46.5"
     r="1"
     fill="#F5A623"
     id="circle18" />
  <circle
     cx="24"
     cy="46.5"
     r="1"
     fill="#F5A623"
     id="circle19" />
  <circle
     cx="27"
     cy="46.5"
     r="1"
     fill="#F5A623"
     id="circle20" />
  <circle
     cx="31"
     cy="46.5"
     r="1"
     fill="#F5A623"
     id="circle21" />
  <circle
     cx="17"
     cy="12.5"
     r="1"
     fill="#F5A623"
     id="circle22" />
  <circle
     cx="21"
     cy="12.5"
     r="1"
     fill="#F5A623"
     id="circle23" />
  <circle
     cx="24"
     cy="12.5"
     r="1"
     fill="#F5A623"
     id="circle24" />
  <circle
     cx="27"
     cy="12.5"
     r="1"
     fill="#F5A623"
     id="circle25" />
  <circle
     cx="31"
     cy="12.5"
     r="1"
     fill="#F5A623"
     id="circle26" />
  <g
     stroke="#F5A623"
     stroke-width="1.2"
     stroke-linecap="round"
     id="g43">
    <line
       x1="8"
       y1="6"
       x2="8"
       y2="9"
       id="line26" />
    <line
       x1="12"
       y1="6"
       x2="12"
       y2="9"
       id="line27" />
    <line
       x1="16"
       y1="6"
       x2="16"
       y2="9"
       id="line28" />
    <line
       x1="20"
       y1="6"
       x2="20"
       y2="9"
       id="line29" />
    <line
       x1="24"
       y1="6"
       x2="24"
       y2="9"
       id="line30" />
    <line
       x1="28"
       y1="6"
       x2="28"
       y2="9"
       id="line31" />
    <line
       x1="32"
       y1="6"
       x2="32"
       y2="9"
       id="line32" />
    <line
       x1="36"
       y1="6"
       x2="36"
       y2="9"
       id="line33" />
    <line
       x1="40"
       y1="6"
       x2="40"
       y2="9"
       id="line34" />
    <line
       x1="8"
       y1="51"
       x2="8"
       y2="54"
       id="line35" />
    <line
       x1="12"
       y1="51"
       x2="12"
       y2="54"
       id="line36" />
    <line
       x1="16"
       y1="51"
       x2="16"
       y2="54"
       id="line37" />
    <line
       x1="20"
       y1="51"
       x2="20"
       y2="54"
       id="line38" />
    <line
       x1="24"
       y1="51"
       x2="24"
       y2="54"
       id="line39" />
    <line
       x1="28"
       y1="51"
       x2="28"
       y2="54"
       id="line40" />
    <line
       x1="32"
       y1="51"
       x2="32"
       y2="54"
       id="line41" />
    <line
       x1="36"
       y1="51"
       x2="36"
       y2="54"
       id="line42" />
    <line
       x1="40"
       y1="51"
       x2="40"
       y2="54"
       id="line43" />
  </g>
</svg>
